<svg xmlns="http://www.w3.org/2000/svg" xml:space="preserve" fill="white" viewBox="0 0 100 100"><path d="M95.94 40.21c-.64-.91-1.03-1.9-.55-3.09.25-.61.27-1.33.31-2 .15-2.5-.02-4.97-.57-7.42-1.85-8.2-6.93-13.45-14.75-16.29-3.41-1.24-7.05-1.63-10.43-2.95-2.42-.95-5.01-1.24-7.49-1.97-8.53-2.54-16.86-2.06-24.88 1.87-2.25 1.11-4.47 1.69-6.98 1.92-6.81.63-12.02 3.97-15.42 9.98-.92 1.64-2.06 2.93-3.95 3.63-3.06 1.13-4.98 3.6-6.48 6.37-2.09 3.86-3.14 8.03-3.58 12.37-.46 4.43-.1 8.68 2.21 12.64 2.03 3.49 4.11 6.93 6.86 9.92 4.1 4.47 9.01 7.78 14.48 10.3.12.03.26.04.37.09 6.67 2.86 13.67 4.2 20.88 4.6 6.19.34 12.32-.42 18.44-1.11 2.56-.29 4.58.46 6.31 2.2 1.82 1.83 3.52 3.77 5.33 5.61 2.1 2.14 3.94 4.54 6.29 6.41 2.62 2.09 4.94 2.57 7.13.03.6-1.28.79-2.62.24-3.94-1.6-3.88-3.23-7.74-4.89-11.59-.6-1.4-.77-2.84-.35-4.26.37-1.25 1.08-2.37 2.46-2.78 2.47-.74 4.48-2.17 6.01-4.2 2.42-3.2 4.19-6.74 5.2-10.63 1.46-5.5 1.26-10.83-2.2-15.71zM60.61 9.83c-.91.21-1.71.39-2.52.57-1.77.45-3.53.95-5.26 1.55a30.75 30.75 0 0 0-4.52 1.97c-.57.31-1.03.35-1.61.01-1.55-.92-3.24-1.55-4.93-2.16-.28-.09-.56-.17-.83-.28-.23-.09-.52-.04-.69-.28 2.91-2.68 16.28-3.63 20.36-1.38zM5.52 51.66c-.56-1.25-.88-2.57-.95-3.91-.14-2.67-.12-5.35.58-7.96.31-1.14.33-2.36.93-3.42.36-1.68 1.09-3.2 1.93-4.68.27-.09.31-.36.41-.57.12-.12.24-.25.36-.37.14-.15.27-.3.39-.45-.12-.06-.05-.21.01-.36l.52-.58c.37-.3.68-.66 1.03-.99 1.52-1.39 3.33-1.91 5.34-1.69.88.1 1.65 0 2.15-.75.47-.71.38-1.51-.19-2.15-.33-.38-.24-.69-.06-1.05 2.23-4.58 5.84-7.47 10.79-8.62 4.23-.99 8.33-.2 12.35 1.22.98.35 1.99.66 2.98 1.32-7.4 3.2-12.77 8.62-17.44 14.85-.8 1.16-1.63 2.3-2.39 3.48-.37.58-.64.55-1.09.11-1.31-1.27-2.84-2.23-4.57-2.78-2.42-.77-4.75-.64-6.84 1.01-.25.2-.54.34-.8.52-.8.95-1.45 1.98-1.95 3.11-.71 1.87-1.04 3.77-.57 5.76.2.86.67 1.6 1.08 2.37.78 1.5 1.43 3.03 1.45 4.75.02 1.62-1.18 3.06-2.76 3.4-1.2.25-2.13-.32-2.69-1.57zm12.81 12.75c.05.57.18 1.14.31 1.71.11.5.01.93-.39 1.2-.4.27-.63-.16-.89-.36-3.39-2.68-6.28-5.81-8.59-9.48-.41-.64-.13-.72.37-.87 1.87-.58 3.44-1.54 4.45-3.32.84-1.48.99-3.05.81-4.67-.24-2.12-1.15-4.01-2.13-5.86-.3-.55-.49-1.11-.52-1.73-.02-1.49.35-2.89 1.29-4.05 1.54-1.92 3.89-2.09 6.21-.48a20 20 0 0 1 2.88 2.41c.42.43.49.74.16 1.23-.27.39-.46.84-.68 1.27-1.93 4.58-2.93 9.36-3.31 14.32-.25 2.89-.21 5.78.03 8.68zm76.94-11.82c-.81 4.79-2.82 9-5.91 12.71-1.2 1.44-2.84 2.13-4.65 2.28-5.83.48-10.4-2.35-12.55-7.79-.6-1.51-1.1-3.04-1.22-4.64-.11-1.62.34-3.2.95-4.69 1.12-2.7 2.85-5.03 4.63-7.32.53-.68 1.39-.59 2.09-.89 3.09-1.34 5.15-3.54 6.01-6.83.04-.15.14-.28.21-.42.57-3.86.16-7.62-1.25-11.27-.41-1.07-1.33-1.69-2.2-1.42-1.1.34-1.55 1.2-1.19 2.44.27.95.72 1.86.79 2.87.79 2.72.99 5.46-.21 8.11-1.16 2.57-3.44 3.64-6.05 3.91-3.56.37-6.83-.66-9.78-2.66-1.23-.84-2.19-2-3.14-3.12-2.33-2.75-5.41-4.05-8.8-4.86-1.48-.35-2.98-.52-4.47-.74-.72-.1-1.33.13-1.89.56-.12.26-.24.52-.37.78-.05 1.46.56 2.12 2.23 2.25 2.3.17 4.49.73 6.64 1.52.21.08.4.19.6.28.74.24 1.4.62 1.92 1.2.24-.02.34.15.43.33 1.29 1.31 2.51 2.68 3.87 3.9 2.48 2.22 5.51 3.28 8.72 3.9.38.07.76.14 1.21.22-.31.88-.92 1.56-1.38 2.29-1.65 2.63-2.9 5.42-3.07 8.55-.14 2.65.53 5.18 1.61 7.59.38.84.81 1.67 1.21 2.5.6.33.8.99 1.2 1.48 2.48 3.11 5.77 4.76 9.61 5.45.55.1.78.2.47.77-1.38 2.61-.9 5.2.16 7.74 1.53 3.66 3.12 7.29 4.69 10.93.12.27.28.55.01.8-.29.27-.59.15-.88-.03-1.42-.88-2.53-2.1-3.66-3.29-2.42-2.54-4.86-5.07-7.22-7.67-1.4-1.54-2.85-2.97-4.75-3.9-1.87-.91-3.83-1.03-5.85-.76-1.43.19-2.88.4-4.32.42-2.02.04-4 .56-6.06.47.06-.48.51-.55.79-.78 2.93-2.34 5.14-5.22 6.6-8.69.12-.29.31-.55.47-.83.28-1.41.77-2.77 1.03-4.2.83-4.42 1.13-8.82-.28-13.18-.67-2.07-1.83-3.83-3.53-5.2-.74-.59-1.93-.44-2.53.27-.54.64-.49 1.73.21 2.35 1.8 1.6 2.76 3.61 3 5.98.39.95.31 2 .29 2.95-.06 3.02-.25 6.06-1.28 8.94-1.55 4.35-4.06 7.97-8.25 10.21-3.41 1.83-7.06 2.09-10.81 1.61-3.69-.47-7.26-1.43-10.73-2.75-1.73-.66-3.32-1.57-4.59-2.96-.84-.92-1.18-2.09-1.44-3.24-1.23-5.45-1.2-10.91-.14-16.4.58-3.02 1.41-5.95 2.75-8.72.05-.11.15-.21.22-.31 1.61-3.4 4.55-4.13 7.92-3.81 3.45.32 6.81 1.07 9.93 2.66.89.46 1.74.99 2.5 1.64 1.92 1.66 2.06 3.42.48 5.52-.23.3-.54.55-.81.82-.84.92-1.93 1.21-3.11 1.33-1.69.17-3.34-.24-4.99-.43-2.49-.29-4.55.63-6.43 2.06-1.93 1.46-3.06 3.5-3.09 5.89-.06 3.61 1.11 6.66 4.9 8.75 2.66 1.47 5.51 1.68 8.44 1.58.19-.01.38-.01.58-.02 2.15-.34 4.22-.87 6.03-2.19 1.05-.77 1.8-1.75 2.3-2.93.51-1.22.13-2.26-.91-2.69-.92-.38-1.77.05-2.39 1.21-.08.83-.67 1.32-1.29 1.71-2.23 1.41-4.72 1.58-7.25 1.34-2.02-.19-3.87-.83-5.41-2.26-.97-.9-1.66-2.98-1.44-4.43 0-.14.03-.28.09-.43.1-2.46 3.52-4.68 6.79-3.99 2.44.52 4.89.56 7.32-.38 3.14-1.22 5.71-5.2 5.28-8.54-.15-1.17-.73-2.19-1.34-3.18-1.26-1.35-2.67-2.49-4.32-3.36-2.45-1.29-5.04-2.13-7.74-2.65-2.06-.39-4.13-.72-6.24-.57-.58.04-1.15.14-1.73.18-.33.02-.67-.06-.32-.47.8-.92 1.41-1.99 2.31-2.84 3.67-4.48 7.8-8.39 13.16-10.83 3.54-1.62 7.19-1.61 10.91-.96 3.84.67 7.53 1.79 10.8 4.01 1.76 1.19 3.22 2.68 4.26 4.54.2.35.3.76.44 1.14.11.18.12.3 0 .35.11.15.22.31.4.39.32.88.71 1.64 1.85 1.6 1.21-.05 1.98-.96 1.67-2.15-.66-2.52-2.02-4.66-3.84-6.5-3.29-3.31-7.37-5.14-11.85-6.19-.09-.02-.16-.1-.24-.15-1.48-.29-2.95-.68-4.46-.79-.14-.1-.34-.17-.23-.4 6.25-2.12 12.6-2.99 19.17-1.83 3.65.65 7.18 1.59 10.33 3.64 3.97 2.59 6.52 6.18 7.64 10.77.22.91.48 1.81.53 2.76.4 2.12.24 4.22-.21 6.31-.74 3.48-3.1 5.76-5.77 7.83-2.37 1.84-4.72 3.7-6.28 6.35-.75 1.27-1.35 2.57-1.36 4.08-.01 1.08.53 1.73 1.47 1.82 1.05.1 1.88-.48 2.02-1.52.29-2.15 1.5-3.73 3.03-5.12 1.16-1.06 2.4-2.05 3.6-3.07 1.5-1.45 3.26-2.63 4.44-4.4.24-.36.41-.15.56.1 1.84 3.04 2.31 6.26 1.73 9.7z" class="st3"/></svg>