<svg xmlns="http://www.w3.org/2000/svg" xml:space="preserve" fill="white" viewBox="0 0 100 100"><path d="M95.01 30.83H73.32V56.4c0 4.63-3.77 8.4-8.4 8.4H35.09v9.62c0 2.17 1.79 3.93 3.99 3.93h36.95l4.99 7.87 4.99-7.87H95c2.21 0 3.99-1.76 3.99-3.93V34.76c.01-2.17-1.78-3.93-3.98-3.93z" class="st3"/><path d="M69.17 56.39V18.04c0-2.35-1.91-4.26-4.26-4.26H5.26C2.91 13.78 1 15.69 1 18.04v38.35c0 2.35 1.91 4.26 4.26 4.26h9.59l5.33 8.52 5.33-8.52h39.41c2.35 0 4.25-1.91 4.25-4.26zM18.04 41.48c-2.35 0-4.26-1.91-4.26-4.26 0-2.35 1.91-4.26 4.26-4.26s4.26 1.91 4.26 4.26c0 2.35-1.9 4.26-4.26 4.26zm17.05 0c-2.35 0-4.26-1.91-4.26-4.26 0-2.35 1.91-4.26 4.26-4.26 2.35 0 4.26 1.91 4.26 4.26 0 2.35-1.91 4.26-4.26 4.26zm17.04 0c-2.35 0-4.26-1.91-4.26-4.26 0-2.35 1.91-4.26 4.26-4.26 2.35 0 4.26 1.91 4.26 4.26 0 2.35-1.91 4.26-4.26 4.26z" class="st3"/></svg>