<svg xmlns="http://www.w3.org/2000/svg" xml:space="preserve" fill="white" viewBox="0 0 100 100"><path d="M61.47 26.61H38.53c-6.54 0-11.85 5.32-11.85 11.85V61.4c0 6.54 5.32 11.85 11.85 11.85h22.94c6.54 0 11.85-5.32 11.85-11.85V38.46c0-6.53-5.32-11.85-11.85-11.85zM50.24 64.08c-7.8 0-14.15-6.35-14.15-14.15 0-7.8 6.35-14.15 14.15-14.15 7.8 0 14.15 6.35 14.15 14.15-.01 7.8-6.35 14.15-14.15 14.15zM65.21 38.2c-1.86 0-3.37-1.51-3.37-3.37s1.51-3.37 3.37-3.37 3.37 1.51 3.37 3.37-1.51 3.37-3.37 3.37z" class="st3"/><path d="M50.24 40.87c-5 0-9.06 4.07-9.06 9.06 0 5 4.07 9.06 9.06 9.06 5 0 9.06-4.07 9.06-9.06 0-5-4.07-9.06-9.06-9.06z" class="st3"/><path d="M50 1C22.94 1 1 22.94 1 50s21.94 49 49 49 49-21.94 49-49S77.06 1 50 1zm28.73 60.4c0 9.52-7.74 17.26-17.26 17.26H38.53c-9.52 0-17.26-7.74-17.26-17.26V38.46c0-9.52 7.74-17.26 17.26-17.26h22.94c9.52 0 17.26 7.74 17.26 17.26V61.4z" class="st3"/></svg>