<svg xmlns="http://www.w3.org/2000/svg" xml:space="preserve" fill="white" viewBox="0 0 100 100"><path d="M50 1C22.94 1 1 22.94 1 50s21.94 49 49 49 49-21.94 49-49S77.06 1 50 1zM38.94 71.36h-9.49V40.87h9.49v30.49zM34.2 36.71c-3.04 0-5.5-2.47-5.5-5.5s2.46-5.49 5.5-5.49c3.03 0 5.49 2.46 5.49 5.49 0 3.04-2.46 5.5-5.49 5.5zm40.24 34.65h-9.47V56.54c0-3.54-.07-8.08-4.93-8.08-4.93 0-5.69 3.85-5.69 7.83v15.08h-9.47v-30.5h9.09v4.17h.12c1.27-2.4 4.36-4.92 8.97-4.92 9.59 0 11.36 6.31 11.36 14.52v16.72z" class="st3"/></svg>