<svg xmlns="http://www.w3.org/2000/svg" xml:space="preserve" fill="white" viewBox="0 0 100 100"><path d="M7.6 7.05C-6 20.64 2.09 50.76 25.67 74.33 49.24 97.9 79.36 106 92.95 92.41c4.12-4.12 5.99-13.47 5.99-13.47.31-1.54-.59-3.26-1.99-3.82l-24.67-9.86c-1.4-.56-3.48-.09-4.62 1.05l-7.14 7.14c-1.36 1.36-3.33 1.71-4.89 1-.12-.06-.24-.12-.37-.19-.05-.03-.11-.06-.15-.09-5.43-2.96-11.18-7.27-16.59-12.68-5.42-5.41-9.72-11.16-12.68-16.59-.03-.05-.06-.1-.08-.15-.07-.13-.13-.25-.2-.37-.7-1.56-.37-3.53.99-4.89l7.16-7.16c1.14-1.13 1.61-3.21 1.05-4.62L24.89 3.05c-.56-1.4-2.28-2.3-3.82-1.99 0 0-9.35 1.87-13.47 5.99z" class="st2"/></svg>