<svg xmlns="http://www.w3.org/2000/svg" xml:space="preserve" fill="white" viewBox="0 0 100 100"><path d="M95.45 35.09H81.96v21.3c0 4.7-3.82 8.52-8.52 8.52H35.09v8.26c0 1.91 1.59 3.46 3.55 3.46h37.4l12.31 13.85V76.63h7.1c1.96 0 3.55-1.55 3.55-3.46V38.55c0-1.91-1.59-3.46-3.55-3.46z" class="st3"/><path d="M77.7 56.39V13.78c0-2.35-1.91-4.26-4.26-4.26H5.26C2.91 9.52 1 11.43 1 13.78v42.61c0 2.35 1.91 4.26 4.26 4.26h8.52V77.7l14.77-17.04h44.88c2.36-.01 4.27-1.92 4.27-4.27zM18.04 22.3h42.61c1.18 0 2.13.95 2.13 2.13s-.95 2.13-2.13 2.13H18.04c-1.18 0-2.13-.95-2.13-2.13s.96-2.13 2.13-2.13zm42.61 25.57H18.04c-1.18 0-2.13-.95-2.13-2.13s.95-2.13 2.13-2.13h42.61c1.18 0 2.13.95 2.13 2.13s-.95 2.13-2.13 2.13zm0-10.65H18.04c-1.18 0-2.13-.95-2.13-2.13s.95-2.13 2.13-2.13h42.61c1.18 0 2.13.95 2.13 2.13 0 1.17-.95 2.13-2.13 2.13z" class="st3"/></svg>